<?xml version="1.0" encoding="UTF-8" standalone="no"?>
<svg width="100px" height="93px" viewBox="0 0 100 93" version="1.1" xmlns="http://www.w3.org/2000/svg" xmlns:xlink="http://www.w3.org/1999/xlink" xmlns:sketch="http://www.bohemiancoding.com/sketch/ns">
    <!-- Generator: Sketch 3.3.3 (12081) - http://www.bohemiancoding.com/sketch -->
    <title>additionalQuestions-large</title>
    <desc>Created with Sketch.</desc>
    <defs></defs>
    <g id="Page-1" stroke="none" stroke-width="1" fill="none" fill-rule="evenodd" sketch:type="MSPage">
        <g id="additionalQuestions-large" sketch:type="MSArtboardGroup">
            <g sketch:type="MSLayerGroup" transform="translate(12.000000, 8.000000)">
                <path d="M76.2016871,38.5 C76.2016871,17.6779331 59.3220669,0.798312856 38.5,0.798312856 C17.6779331,0.798312856 0.798312856,17.6779331 0.798312856,38.5 C0.798312856,59.3220669 17.6779331,76.2016871 38.5,76.2016871 C59.3220669,76.2016871 76.2016871,59.3220669 76.2016871,38.5 Z" id="Shape-Copy-4" fill="#2D92C4" sketch:type="MSShapeGroup"></path>
                <path d="M73.2401487,38.5 C73.2401487,19.3135457 57.6864543,3.75985132 38.5,3.75985132 C19.3135457,3.75985132 3.75985132,19.3135457 3.75985132,38.5 C3.75985132,57.6864543 19.3135457,73.2401487 38.5,73.2401487 C57.6864543,73.2401487 73.2401487,57.6864543 73.2401487,38.5 Z" id="Shape-Copy-8" fill="#4FACD9" sketch:type="MSShapeGroup"></path>
                <path d="M38.5,68.9212384 C55.3011861,68.9212384 68.9212384,55.3011861 68.9212384,38.5 C68.9212384,21.6988139 55.3011861,8.07876157 38.5,8.07876157 C21.6988139,8.07876157 8.07876157,21.6988139 8.07876157,38.5 C8.07876157,55.3011861 21.6988139,68.9212384 38.5,68.9212384 L38.5,68.9212384 Z" id="Shape" fill="#2D92C4" sketch:type="MSShapeGroup"></path>
                <path d="M34.434775,55.5718675 C34.434775,57.4977315 36.0905697,59.0819993 37.9298278,59.0819993 C39.6905144,59.0819993 41.4248807,57.3395818 41.4248807,55.5718675 L41.4248807,55.3387721 C41.6728418,53.6124457 39.9668189,52.0617358 37.9298278,52.0617358 C36.0116834,52.0617358 34.434775,53.7251758 34.434775,55.5718675 L34.434775,55.5718675 Z" id="Shape" fill="#F7F7F7" sketch:type="MSShapeGroup"></path>
                <path d="M24.9220196,29.9313633 C24.9220196,31.2328866 25.9603306,32.2760176 27.2569803,32.2760176 C28.55363,32.2760176 29.591941,31.2328866 29.591941,29.9313633 C29.591941,25.4054992 33.4260169,21.5536249 37.9298278,21.5536249 C41.0329031,21.5536249 43.7739715,22.8679351 45.1487798,24.9397207 C46.9294759,27.9218673 46.239876,30.9817389 43.7784861,33.7293124 C43.5042619,34.0043263 43.2762788,34.2047375 42.7597981,34.6371361 C42.2321959,35.0788456 41.9961422,35.2863515 41.6992271,35.5846449 C37.336079,39.2361574 35.5948671,41.5102407 35.5948671,45.0825703 C35.5948671,46.3840936 36.6331781,47.4272247 37.9298278,47.4272247 C39.2264775,47.4272247 40.2647885,46.3840936 40.2647885,45.0825703 C40.2647885,43.4092562 41.7506076,41.6591749 44.5782983,39.4496503 C45.9769982,38.3958033 46.5620303,37.925605 47.1534604,37.3314293 C51.4083809,33.0567568 52.1238397,27.5678902 49.0419013,22.8044359 C46.9543312,19.0749427 42.7476617,16.8643162 37.9298278,16.8643162 C30.8327175,16.8643162 24.9220196,22.8024526 24.9220196,29.9313633 L24.9220196,29.9313633 Z" id="Shape" fill="#F7F7F7" sketch:type="MSShapeGroup"></path>
            </g>
        </g>
    </g>
</svg>