<?xml version="1.0" encoding="UTF-8" standalone="no"?>
<svg width="100px" height="93px" viewBox="0 0 100 93" version="1.1" xmlns="http://www.w3.org/2000/svg" xmlns:xlink="http://www.w3.org/1999/xlink" xmlns:sketch="http://www.bohemiancoding.com/sketch/ns">
    <!-- Generator: Sketch 3.3.3 (12081) - http://www.bohemiancoding.com/sketch -->
    <title>approval-large</title>
    <desc>Created with Sketch.</desc>
    <defs></defs>
    <g id="Page-1" stroke="none" stroke-width="1" fill="none" fill-rule="evenodd" sketch:type="MSPage">
        <g id="approval-large" sketch:type="MSArtboardGroup">
            <g sketch:type="MSLayerGroup" transform="translate(3.000000, 16.000000)">
                <path d="M94.5859576,24.5308311 C94.5049763,24.3694441 94.5049763,24.3694441 94.5049763,24.2887505 C94.4239951,24.208057 94.4239951,24.1273635 94.3430139,24.04667 C94.2620327,23.9659764 94.1810515,23.8852829 94.1000702,23.8852829 L87.0547041,18.5595104 L72.1541595,7.2624171 L62.8413192,0.24208057 C62.436413,-0.0806935234 61.7885633,-0.0806935234 61.3836572,0.24208057 L52.0708168,7.2624171 L37.1702723,18.5595104 L30.1249061,23.8852829 C30.0439249,23.9659764 30.0439249,23.9659764 29.9629437,24.04667 C29.8819624,24.1273635 29.8819624,24.208057 29.8009812,24.2887505 C29.8009812,24.4501376 29.72,24.5308311 29.72,24.5308311 L29.72,24.7729117 L29.72,58.9869656 C29.72,59.6325138 30.2868685,60.1973684 30.9347183,60.1973684 L93.4522205,60.1973684 C94.1000702,60.1973684 94.6669388,59.6325138 94.6669388,58.9869656 L94.5859576,24.7729117 L94.5859576,24.5308311 Z" id="Shape" fill="#86D0D7" sketch:type="MSShapeGroup"></path>
                <path d="M37.2512534,26.7817792 L33.2831737,24.5308311 L37.2512535,21.5451707 L37.2512535,26.2253951 L37.2512534,26.7817792 Z" id="Path" fill="#60C0C9" sketch:type="MSShapeGroup"></path>
                <path d="M87.0547041,26.7971482 L87.0547041,21.5451707 L91.0227839,24.5308311 L87.0547041,26.7971482 Z" id="Path" fill="#60C0C9" sketch:type="MSShapeGroup"></path>
                <path d="M62.1124882,2.74357979 L68.1050985,7.2624171 L56.1198779,7.2624171 L62.1124882,2.74357979 L62.1124882,2.74357979 Z" id="Path" fill="#60C0C9" sketch:type="MSShapeGroup"></path>
                <path d="M37.1866889,27.0311517 L37.1866889,7.519761 C37.1866889,7.08009993 37.5459542,6.72368421 37.9912985,6.72368421 L86.3186101,6.72368421 C86.7629837,6.72368421 87.1232198,7.07615834 87.1232198,7.519761 L87.1232203,27.0311517 L62.8186408,40.8609207 L37.1866889,27.0311517 Z" id="Rectangle" stroke="#F0F0F0" stroke-width="0.80471916" fill="#F7F7F7" sketch:type="MSShapeGroup"></path>
                <polygon id="Triangle-3" fill="#60C0C9" sketch:type="MSShapeGroup" points="61.9140351 32.7659013 94.3864103 60.3342377 29.4394715 60.3342377 "></polygon>
                <g id="wind" transform="translate(0.322526, 23.671053)" sketch:type="MSShapeGroup">
                    <g id="Group" transform="translate(13.772000, 9.500000) scale(-1, 1) translate(-13.772000, -9.500000) translate(0.272000, 0.000000)">
                        <path d="M11.0654327,5 L2.93499978,5 C2.4186308,5 2,4.55272895 2,4 C2,3.44773358 2.4186308,3 2.93499978,3 L11.0650002,3 C11.5813692,3 12,3.44773358 12,4 C12,4.55272895 11.5813692,5 11.0654327,5 L11.0654327,5 Z" id="Shape" fill="#EDEDED"></path>
                        <path d="M0.93606581,8 C0.419108096,8 6.57252031e-14,7.60578294 6.57252031e-14,7.11952759 C6.57252031e-14,6.6336795 0.419108096,6.23905518 0.93606581,6.23905518 L22.7474383,6.23905518 C24.0597489,6.23905518 25.1278684,5.23437182 25.1278684,4 C25.1278684,2.76522093 24.0597489,1.76094482 22.7474383,1.76094482 C21.4346948,1.76094482 20.3670082,2.76522093 20.3670082,4 C20.3670082,4.48625535 19.9474672,4.88047241 19.4305095,4.88047241 C18.9139847,4.88047241 18.4948766,4.48625535 18.4948766,4 C18.4948766,1.79433924 20.4020782,6.21724894e-15 22.7474383,6.21724894e-15 C25.0919325,6.21724894e-15 27,1.79433924 27,4 C27,6.20566076 25.0923654,8 22.7478713,8 L0.93606581,8 Z" id="Shape" fill="#DEDEDE"></path>
                        <path d="M16.7077152,19 C14.3406432,19 12.4154305,17.2055694 12.4154305,14.9997964 C12.4154305,14.5139235 12.8380595,14.1196864 13.3603362,14.1196864 C13.882176,14.1196864 14.305242,14.5139235 14.305242,14.9997964 C14.305242,16.2346383 15.3838856,17.2385583 16.7081522,17.2385583 C18.0328559,17.2385583 19.1110625,16.2346383 19.1110625,14.9997964 C19.1110625,13.7653617 18.0328559,12.7606272 16.7081522,12.7606272 L4.94490577,12.7606272 C4.4235031,12.7606272 4,12.3659828 4,11.8805172 C4,11.3942371 4.4235031,11 4.94490577,11 L16.7077152,11 C19.0747872,11 20.9999999,12.7944306 20.9999999,14.9997964 C21.000437,17.2055694 19.0747872,19 16.7077152,19 L16.7077152,19 Z" id="Shape" fill="#EDEDED"></path>
                    </g>
                </g>
                <rect id="Rectangle-326" fill="#C5D2D3" sketch:type="MSShapeGroup" x="42.2825256" y="12.8421053" width="39.168" height="1.4447368"></rect>
                <rect id="Rectangle-326-Copy" fill="#C5D2D3" sketch:type="MSShapeGroup" x="42.2825256" y="16.8552632" width="39.168" height="1.4447368"></rect>
                <rect id="Rectangle-326-Copy-2" fill="#C5D2D3" sketch:type="MSShapeGroup" x="42.2825256" y="20.8684211" width="39.168" height="1.4447368"></rect>
                <rect id="Rectangle-326-Copy-3" fill="#C5D2D3" sketch:type="MSShapeGroup" x="42.2825256" y="24.8815789" width="39.168" height="1.4447368"></rect>
            </g>
        </g>
    </g>
</svg>