<?xml version="1.0" encoding="UTF-8" standalone="no"?>
<svg width="100px" height="93px" viewBox="0 0 100 93" version="1.1" xmlns="http://www.w3.org/2000/svg" xmlns:xlink="http://www.w3.org/1999/xlink" xmlns:sketch="http://www.bohemiancoding.com/sketch/ns">
    <!-- Generator: Sketch 3.3.3 (12081) - http://www.bohemiancoding.com/sketch -->
    <title>borrowerInformation-large</title>
    <desc>Created with Sketch.</desc>
    <defs></defs>
    <g id="Page-1" stroke="none" stroke-width="1" fill="none" fill-rule="evenodd" sketch:type="MSPage">
        <g id="borrowerInformation-large" sketch:type="MSArtboardGroup">
            <g sketch:type="MSLayerGroup" transform="translate(7.000000, 13.000000)">
                <path d="M0.139123031,58.2609912 L0.139123031,9.14173455 C0.139123031,4.470885 4.16636867,0.553398275 9.32124308,0.553398275 L76.1735206,0.553398275 C81.1673052,0.553398275 85.3556407,4.32021243 85.3556407,9.14173455 L85.3556407,58.4116637 C85.3556407,63.0825133 81.3283951,67 76.1735206,67 L9.32124308,67 C4.32745849,66.8493274 0.139123031,63.0825133 0.139123031,58.2609912 L0.139123031,58.2609912 Z" id="Path" fill="#F0F0F0" sketch:type="MSShapeGroup"></path>
                <path d="M2.00868825,58.2609912 L2.00868825,58.2609912 C2.00868825,61.9177884 5.26386806,64.9624642 9.32124308,65.0857143 L76.1735206,65.0857143 C80.2718546,65.0857143 83.4860755,62.0426857 83.4860755,58.4116637 L83.4860755,9.14173455 C83.4860755,5.47548025 80.2311086,2.46768399 76.1735206,2.46768399 L9.32124308,2.46768399 C5.22290908,2.46768399 2.00868825,5.51071253 2.00868825,9.14173455 L2.00868825,58.2609912 Z" id="Shape" fill="#FBFBFB" sketch:type="MSShapeGroup"></path>
                <rect id="Rectangle-612" fill="#2D92C4" sketch:type="MSShapeGroup" x="0" y="59" width="85.3000031" height="8" rx="10"></rect>
                <rect id="Rectangle-614" fill="#2D92C4" sketch:type="MSShapeGroup" x="0" y="58" width="85.3000031" height="5"></rect>
                <path d="M76.0124308,0.553398275 L9.32124308,0.553398275 C4.32745849,0.553398275 0.139123031,4.7070182 0.139123031,10.0236517 L0.139123031,28.7142865 L85.1945484,28.7142865 L85.1945509,10.0236517 C85.1945509,4.873163 81.1673052,0.553398275 76.0124308,0.553398275 Z" id="Shape" fill="#2D92C4" sketch:type="MSShapeGroup"></path>
                <path d="M15.6325642,21.0571429 L17.5297055,21.0571429 L17.5297055,16.39825 L22.6812925,16.39825 L22.6812925,21.0571429 L24.5784338,21.0571429 L24.5784338,10.0021429 L22.6812925,10.0021429 L22.6812925,14.5978643 L17.5297055,14.5978643 L17.5297055,10.0021429 L15.6325642,10.0021429 L15.6325642,21.0571429 Z M28.4564461,21.0571429 L36.5385765,21.0571429 L36.5385765,19.3199286 L30.3535874,19.3199286 L30.3535874,16.3508714 L35.7673809,16.3508714 L35.7673809,14.6136571 L30.3535874,14.6136571 L30.3535874,11.7393571 L36.461457,11.7393571 L36.461457,10.0021429 L28.4564461,10.0021429 L28.4564461,21.0571429 Z M39.8921758,21.0571429 L47.4653171,21.0571429 L47.4653171,19.2883429 L41.7893171,19.2883429 L41.7893171,10.0021429 L39.8921758,10.0021429 L39.8921758,21.0571429 Z M50.541286,21.0571429 L58.1144273,21.0571429 L58.1144273,19.2883429 L52.4384273,19.2883429 L52.4384273,10.0021429 L50.541286,10.0021429 L50.541286,21.0571429 Z M65.7250266,21.2466571 C69.0411679,21.2466571 71.3856027,18.6408357 71.3856027,15.5296429 L71.3856027,15.4980571 C71.3856027,12.3868643 69.0720157,9.81262857 65.7558744,9.81262857 C62.4397331,9.81262857 60.0952984,12.41845 60.0952984,15.5296429 L60.0952984,15.5612286 C60.0952984,18.6724214 62.4088853,21.2466571 65.7250266,21.2466571 L65.7250266,21.2466571 Z M65.7558744,19.4620643 C63.6119505,19.4620643 62.0849831,17.6774714 62.0849831,15.5296429 L62.0849831,15.4980571 C62.0849831,13.3502286 63.5811027,11.5972214 65.7250266,11.5972214 C67.8689505,11.5972214 69.3959179,13.3818143 69.3959179,15.5296429 L69.3959179,15.5612286 C69.3959179,17.7090571 67.8997984,19.4620643 65.7558744,19.4620643 L65.7558744,19.4620643 Z" id="HELLO" fill="#F7F7F7" sketch:type="MSShapeGroup"></path>
                <path d="M66.5317085,47.3741829 C66.5247364,47.4094686 66.5147727,47.4445179 66.5017024,47.4789311 C66.0640146,48.5303773 65.3569805,49.3922185 64.4311024,49.9782705 C63.6904,50.4609015 62.8150244,50.7366907 62.0574878,50.7366907 C61.2831171,50.7366907 60.2057317,50.3919542 59.7343756,49.4439289 C59.6409541,49.2589935 59.5751829,49.0622615 59.5370622,48.853733 C59.5242834,48.8610873 59.5114938,48.8682178 59.4986976,48.8751138 C58.9095025,49.1681398 58.4718147,49.0647188 58.2193025,48.9095874 C57.8826196,48.7372192 57.6469415,48.4097195 57.4449318,47.8926148 C57.3775952,48.0305094 57.2934244,48.168404 57.2260879,48.2890618 C56.2833757,49.7886654 55.2564927,50.5470856 54.1959415,50.5470856 C53.8592586,50.5470856 53.5730781,50.3919542 53.3879025,50.0989282 C53.2027269,49.823139 53.0848879,49.4266921 53.0512196,48.8923506 C52.983883,48.9785347 52.9165464,49.0647188 52.8492098,49.1336661 C52.0916733,49.9955073 51.2836342,50.512612 50.677605,50.5298488 C50.1220782,50.5298488 49.6507221,50.219586 49.3813757,49.7024813 C49.1736556,49.3271479 49.0900996,48.8428424 49.1178332,48.2825213 L49.1178332,48.2825213 C48.8957456,48.442376 48.6619322,48.5714234 48.4218294,48.6682719 C47.9841416,48.8406401 47.5127855,48.8923506 47.0414294,48.8406401 C46.8057514,49.0991925 46.5532392,49.340508 46.2838928,49.5818235 C45.5936928,50.1506387 44.9539953,50.4953752 44.4153026,50.6160329 C44.2637953,50.6332697 44.1291221,50.6505066 44.0112831,50.6505066 C43.5567611,50.6505066 43.1695758,50.4781383 42.9002294,50.1678755 C42.7076698,49.9488025 42.5785601,49.6709491 42.5129003,49.3500433 C42.4295787,49.4244275 42.3453513,49.4960223 42.2605319,49.5645867 C41.5366636,50.1678755 40.7959612,50.4953752 40.1225953,50.5470856 L40.1057612,50.5470856 L39.9542539,50.5470856 C39.3145563,50.5470856 38.9778734,50.2540596 38.8095319,49.9955073 C38.6075222,49.7024813 38.5401856,49.3232712 38.6075222,48.8578769 C38.6580246,48.4269563 38.8263661,47.9098516 39.1293807,47.289326 C39.4323953,46.6515635 39.6007368,46.2034061 39.5502343,45.8931433 C39.5165661,45.7207751 39.4155612,45.4622227 38.8263661,45.0657758 C38.3718441,46.0999852 37.6143075,47.7719571 37.5806392,47.8581412 C37.5207893,47.9807044 37.4294159,48.0736799 37.3220849,48.1328176 L37.3220849,48.1328176 C36.9339985,48.679334 36.4674143,49.1717093 35.9813953,49.5645867 C35.2575271,50.1678755 34.5168246,50.4953752 33.8434588,50.5470856 L33.8266246,50.5470856 L33.6751173,50.5470856 C33.0354198,50.5470856 32.6987368,50.2540596 32.5303954,49.9955073 C32.3283856,49.7024813 32.261049,49.3232712 32.3283856,48.8578769 C32.3788881,48.4269563 32.5472295,47.9098516 32.8502442,47.289326 C33.1532588,46.6515635 33.3216003,46.2034061 33.2710978,45.8931433 C33.2374295,45.7207751 33.1364246,45.4622227 32.5472295,45.0657758 C32.0927076,46.0999852 31.335171,47.7719571 31.3015027,47.8581412 C31.1499954,48.168404 30.7964783,48.2890618 30.4934637,48.1511672 C30.4847784,48.1469822 30.4762326,48.142575 30.4678297,48.1379546 C30.1914619,48.3659873 29.8931397,48.5437458 29.5844198,48.6682719 C29.146732,48.8406401 28.6753759,48.8923506 28.2040198,48.8406401 C27.9683418,49.0991925 27.7158296,49.340508 27.4464832,49.5818235 C26.7562832,50.1506387 26.1165857,50.4953752 25.577893,50.6160329 C25.4263857,50.6332697 25.2917125,50.6505066 25.1738735,50.6505066 C24.7193515,50.6505066 24.3321662,50.4781383 24.0628198,50.1678755 C23.6082979,49.6507708 23.507293,48.8061665 23.7598052,47.8409043 C23.9954833,46.9273527 24.5341759,46.0310379 25.2580442,45.3243281 C25.3758832,45.2036704 25.5273906,45.1347231 25.695732,45.1519599 C25.8304052,44.7899866 26.0492491,44.4624869 26.3690979,44.1866978 C27.2781418,43.3420934 28.0020101,43.4282775 28.3723613,43.5489353 C28.9447222,43.7557772 29.3655759,44.3073555 29.5002491,45.0657758 C29.6180881,45.7380119 29.5002491,46.5309058 29.1804003,47.289326 C29.146732,47.3755101 29.1130637,47.4616942 29.0625613,47.5478783 C29.4665808,47.4272206 29.836932,47.1514314 30.1567808,46.7205108 C30.2661201,46.5805674 30.4247766,46.5062701 30.5900411,46.5003519 L30.5900411,46.5003519 C30.904761,45.8062248 31.3380367,44.8454665 31.5876832,44.2728819 C31.5371808,44.1866978 31.4866783,44.0832768 31.45301,43.9970927 C31.335171,43.6695931 31.3688393,43.3248566 31.5203466,43.0318306 C31.7560247,42.5836732 32.2273807,42.3940681 32.6145661,42.5836732 C32.7660734,42.6526205 33.1027564,42.8766992 33.0690881,43.479988 C33.0690881,43.6178826 33.0354198,43.7557772 33.0017515,43.9109086 C33.8939612,44.4624869 34.331649,45.0140653 34.449488,45.6690646 C34.5673271,46.3757744 34.2643124,47.0997209 33.9276295,47.8236675 C33.405771,48.9095874 33.5067759,49.2543239 33.52361,49.3060343 C33.5404442,49.3232712 33.5909466,49.340508 33.7424539,49.3232712 L33.7761222,49.3232712 C34.6514978,49.2715607 35.8803905,48.2545881 36.6379271,46.9790632 C36.6512954,46.9557934 36.6659377,46.933828 36.6817106,46.9131929 C36.9841343,46.2482635 37.5621892,44.9715767 37.8668197,44.2728819 C37.8163173,44.1866978 37.7658148,44.0832768 37.7321466,43.9970927 C37.6143075,43.6695931 37.6479758,43.3248566 37.7994831,43.0318306 C38.0351612,42.5836732 38.5065173,42.3940681 38.8937026,42.5836732 C39.04521,42.6526205 39.3818929,42.8766992 39.3482246,43.479988 C39.3482246,43.6178826 39.3145563,43.7557772 39.280888,43.9109086 C40.1730978,44.4624869 40.6107856,45.0140653 40.7286246,45.6690646 C40.8464636,46.3757744 40.543449,47.0997209 40.206766,47.8236675 C39.6849075,48.9095874 39.7859124,49.2543239 39.8027465,49.3060343 C39.8195807,49.3232712 39.8700831,49.340508 40.0215904,49.3232712 L40.0552587,49.3232712 C40.9198336,49.2721987 42.1292557,48.2795368 42.8888095,47.0261576 L42.8888095,47.0261576 C43.1736037,46.4054569 43.5892511,45.8185318 44.0954538,45.3243281 C44.2132928,45.2036704 44.3648002,45.1347231 44.5331416,45.1519599 C44.6678148,44.7899866 44.8866587,44.4624869 45.2065075,44.1866978 C46.1155514,43.3420934 46.8394196,43.4282775 47.2097709,43.5489353 C47.7821318,43.7557772 48.2029855,44.3073555 48.3376587,45.0657758 C48.4554977,45.7380119 48.3376587,46.5309058 48.0178099,47.289326 C47.9841416,47.3755101 47.9504733,47.4616942 47.8999709,47.5478783 C48.3039904,47.4272206 48.6743416,47.1514314 48.9941904,46.7205108 C49.1248817,46.5532389 49.3260327,46.4797555 49.5247085,46.5047281 C49.7324588,45.9697439 50.0134992,45.4200151 50.3577562,44.8761707 C50.5260977,44.5831447 50.8964489,44.5141974 51.1826294,44.6865657 C51.4519757,44.8761707 51.5361464,45.2553808 51.3509708,45.53117 C50.8459464,46.3413007 50.5092635,47.1341946 50.3745903,47.8409043 C50.223083,48.6165614 50.3577562,48.9957715 50.4419269,49.1336661 C50.5260977,49.3060343 50.6271025,49.2887975 50.677605,49.3060343 C50.7112733,49.2887975 50.8627806,49.2543239 51.1152928,49.0819556 C51.3173025,48.944061 51.6203172,48.7027455 51.9738342,48.2890618 C52.4283562,47.7891939 53.0175513,46.9273527 53.4720732,45.6518278 L53.674083,44.9968285 C53.791922,44.6865657 54.128605,44.5141974 54.4316196,44.6176184 C54.7346342,44.7210393 54.9029757,45.0657758 54.8188049,45.3760386 C54.7514684,45.6001173 54.6841318,45.824196 54.599961,46.0310379 C54.4484537,46.5826162 54.3306147,47.2203787 54.2801123,47.8236675 C54.1959415,48.6855087 54.2632781,49.1336661 54.3306147,49.3232712 C55.0713171,49.2198502 55.7615171,48.358009 56.2160391,47.6340625 C56.5695561,47.0652473 56.8557366,46.4447216 57.0577464,45.9793274 C57.0240781,45.5139332 57.0240781,45.1002494 57.0577464,44.7899866 C57.125083,44.3245924 57.2934244,44.0315664 57.5627708,43.8936718 C57.815283,43.7385404 58.1182976,43.773014 58.3371415,43.9798559 C58.6738244,44.2728819 58.741161,44.8761707 58.5223171,45.53117 C58.4718147,45.6518278 58.4044781,45.8759065 58.2866391,46.1516956 C58.4718147,47.5995888 58.7579952,47.8236675 58.7748293,47.8409043 C58.7916634,47.8409043 58.8421659,47.8409043 58.9600049,47.7719571 C59.2293512,47.6340625 59.667039,47.0824841 59.8690488,46.7549845 C59.8942802,46.7150577 59.9229496,46.6792912 59.9543329,46.6477285 L59.9543329,46.6477285 C60.1421117,46.2540005 60.3886414,45.8391975 60.693922,45.4105122 C61.4346244,44.359066 62.2089951,43.7040667 63.0170341,43.4455144 C63.926078,43.1697252 64.5321073,43.5144617 64.6836146,43.6178826 C64.9361268,43.7902508 65.1213024,44.0488032 65.2223073,44.359066 C65.3401463,44.652092 65.3569805,44.9968285 65.2896439,45.3415649 C65.1213024,46.1689325 64.2964293,47.6340625 60.693922,48.3235354 C60.6770878,48.5303773 60.7107561,48.7199823 60.7949268,48.8751138 C61.0137707,49.3060343 61.6029659,49.5128762 62.0574878,49.5128762 C62.9077081,49.5128762 64.3683288,48.9460145 65.1879524,47.4385693 C65.196362,47.4053283 65.2077642,47.3726799 65.2223073,47.3410365 C65.2391414,47.3065628 66.1818536,45.238144 66.6027073,44.2728819 C66.5522048,44.1866978 66.5017024,44.0832768 66.4680341,43.9970927 C66.3501951,43.6695931 66.3838634,43.3248566 66.5353707,43.0318306 C66.7710487,42.5836732 67.2424048,42.3940681 67.6295902,42.5836732 C67.7810975,42.6526205 68.1177804,42.8766992 68.0841121,43.479988 C68.0841121,43.6178826 68.0504439,43.7557772 68.0167756,43.9109086 C68.9089853,44.4624869 69.3466731,45.0140653 69.4645121,45.6690646 C69.5823512,46.3757744 69.2793365,47.0997209 68.9426536,47.8236675 C68.4207951,48.9095874 68.5217999,49.2543239 68.5386341,49.3060343 C68.5554682,49.3232712 68.6059707,49.340508 68.757478,49.3232712 L68.7911463,49.3232712 C69.6665219,49.2715607 70.8954146,48.2545881 71.6529511,46.9790632 C71.8212926,46.6860372 72.1916438,46.5998531 72.4778243,46.7722213 C72.7640048,46.9445895 72.8481755,47.3237996 72.6798341,47.5995888 C72.2421463,48.358009 71.636117,49.047482 70.9964194,49.5645867 C70.2725512,50.1678755 69.5318487,50.4953752 68.8584829,50.5470856 L68.8416487,50.5470856 L68.6901414,50.5470856 C68.0504439,50.5470856 67.7137609,50.2540596 67.5454195,49.9955073 C67.3434097,49.7024813 67.2760731,49.3232712 67.3434097,48.8578769 C67.3939122,48.4269563 67.5622536,47.9098516 67.8652682,47.289326 C68.1682829,46.6515635 68.3366243,46.2034061 68.2861219,45.8931433 C68.2524536,45.7207751 68.1514487,45.4622227 67.5622536,45.0657758 C67.2508998,45.7742236 66.7973581,46.7819377 66.5317085,47.3741829 Z M23.4231223,45.7897224 C23.3726198,45.3588018 23.2042784,44.9623548 22.9517662,44.6003815 C22.4972442,44.0143295 21.7565418,43.6006458 20.746493,43.3248566 C21.2178491,43.1180147 21.6218686,42.893936 21.9585516,42.6353837 C22.7665906,42.014858 23.2042784,41.2564378 23.271615,40.3773598 C23.3052833,39.8774919 23.2547808,39.4465713 23.1201077,39.0673612 C22.9854345,38.6536774 22.7497564,38.3261778 22.4299077,38.0503886 C21.7902101,37.5160471 20.8306638,37.2747316 19.4839321,37.326442 C18.3055418,37.3781525 16.7904687,37.6711785 15.0060492,38.1882832 C14.6862004,38.2744673 14.5010248,38.6192038 14.5851955,38.9467034 C14.6862004,39.2569663 15.0060492,39.4465713 15.325898,39.3603872 C15.9824297,39.1707822 16.5884589,39.0156507 17.1608199,38.894993 C16.4032833,41.0151223 14.5851955,46.3068271 14.1643419,48.9095874 C14.1138394,49.2543239 14.3326833,49.5645867 14.6693663,49.6162972 C14.7030346,49.6162972 14.7367028,49.633534 14.7703711,49.633534 C15.0565516,49.633534 15.3090638,49.4094553 15.3595663,49.1164293 C15.5447419,47.9270885 16.0497663,46.0999852 16.6221272,44.2901187 C17.4975028,44.2384082 18.6758931,44.2039346 19.7532784,44.3763028 C20.8643321,44.5486711 21.6387028,44.8934075 21.9922199,45.3588018 C22.2784003,45.7207751 22.3120686,46.2206429 22.1100589,46.8584054 C21.2346833,49.530113 17.4301662,50.0989282 14.1643419,49.7541917 C13.8444931,49.7197181 13.5414785,49.9610336 13.5078102,50.2885333 C13.4741419,50.6332697 13.7098199,50.9262957 14.0465029,50.9607694 C14.6525321,51.0297167 15.2585614,51.0641903 15.8477565,51.0641903 C17.177654,51.0641903 18.4065467,50.9090589 19.4502638,50.5815593 C20.3761418,50.3057701 21.1505126,49.9093232 21.7565418,49.3922185 C22.463576,48.8061665 22.9686003,48.0822199 23.2379467,47.2376155 C23.4062881,46.7205108 23.4736247,46.2378798 23.4231223,45.7897224 Z M19.3155906,42.5491995 C18.4570492,42.8249887 17.5816736,42.9456465 17.0261467,43.0145938 C17.6658443,41.0323591 18.3055418,39.2569663 18.5243857,38.6536774 C18.894737,38.601967 19.2314199,38.5674933 19.5344345,38.5502565 C20.5444833,38.5157829 21.2851857,38.6709143 21.6723711,38.9984139 C21.9922199,39.2569663 22.126893,39.6878869 22.0763906,40.2739389 C21.9922199,41.4977533 20.5276491,42.1872263 19.3155906,42.5491995 Z M27.884171,44.6865657 C27.6989954,44.6865657 27.4464832,44.8244602 27.1603027,45.0830126 C26.7731174,45.4449859 26.6384442,45.8586696 26.7731174,46.3068271 C26.8909564,46.7894581 27.2781418,47.2031419 27.7494979,47.4444574 C28.2545222,46.6515635 28.4228637,45.8586696 28.3218588,45.2726177 C28.2713564,44.9795917 28.1366832,44.7555129 27.9851759,44.7038025 C27.9515076,44.6865657 27.9178393,44.6865657 27.884171,44.6865657 Z M25.6283954,46.703274 C25.2917125,47.1514314 25.0392003,47.6685361 24.9045272,48.1511672 C24.7530198,48.754456 24.8203564,49.1853766 24.9550296,49.3577448 C24.9886979,49.3749816 25.0560345,49.4611657 25.342215,49.4094553 C25.577893,49.3577448 26.0155808,49.1853766 26.6889466,48.6337982 C26.7731174,48.5476141 26.8741223,48.4786668 26.958293,48.3924827 C26.3185954,47.9960358 25.8304052,47.3927469 25.6283954,46.703274 Z M46.7215806,44.6865657 C46.536405,44.6865657 46.2838928,44.8244602 45.9977123,45.0830126 C45.610527,45.4449859 45.4758538,45.8586696 45.610527,46.3068271 C45.728366,46.7894581 46.1155514,47.2031419 46.5869075,47.4444574 C47.0919318,46.6515635 47.2602733,45.8586696 47.1592684,45.2726177 C47.108766,44.9795917 46.9740928,44.7555129 46.8225855,44.7038025 C46.7889172,44.6865657 46.7552489,44.6865657 46.7215806,44.6865657 Z M44.465805,46.703274 C44.1291221,47.1514314 43.8766099,47.6685361 43.7419367,48.1511672 C43.5904294,48.754456 43.657766,49.1853766 43.7924392,49.3577448 C43.8261075,49.3749816 43.8934441,49.4611657 44.1796245,49.4094553 C44.4153026,49.3577448 44.8529904,49.1853766 45.5263562,48.6337982 C45.610527,48.5476141 45.7115319,48.4786668 45.7957026,48.3924827 C45.156005,47.9960358 44.6678148,47.3927469 44.465805,46.703274 Z M63.7072341,44.5659079 C63.6062293,44.5659079 63.4883902,44.5831447 63.3537171,44.6176184 C62.9833658,44.7382761 62.3941707,45.0830126 61.6703024,46.117222 C61.4514585,46.4274848 61.2831171,46.703274 61.1316098,46.9790632 C63.1348732,46.4791953 63.9934146,45.7035382 64.1112536,45.0830126 C64.1617561,44.8416971 64.0775854,44.6693288 64.0270829,44.6348552 C63.9765805,44.6003815 63.8587415,44.5659079 63.7072341,44.5659079 Z" id="Borrower" fill="#FF922D" sketch:type="MSShapeGroup"></path>
            </g>
        </g>
    </g>
</svg>