<?xml version="1.0" encoding="UTF-8" standalone="no"?>
<svg width="100px" height="93px" viewBox="0 0 100 93" version="1.1" xmlns="http://www.w3.org/2000/svg" xmlns:xlink="http://www.w3.org/1999/xlink" xmlns:sketch="http://www.bohemiancoding.com/sketch/ns">
    <!-- Generator: Sketch 3.3.3 (12081) - http://www.bohemiancoding.com/sketch -->
    <title>creditCheck-large</title>
    <desc>Created with Sketch.</desc>
    <defs></defs>
    <g id="Page-1" stroke="none" stroke-width="1" fill="none" fill-rule="evenodd" sketch:type="MSPage">
        <g id="creditCheck-large" sketch:type="MSArtboardGroup">
            <g sketch:type="MSLayerGroup" transform="translate(5.000000, 13.000000)">
                <path d="M0.0910815939,57.2598356 C0.0910815939,62.4510551 4.77133232,66.5914646 10.5006878,66.7549648 L79.4718114,66.7553571 C85.2423013,66.7553571 89.9089184,62.576663 89.9089184,57.4068027 L89.9089184,9.34855442 C89.9089184,4.12735488 85.1865282,0 79.4718114,0 L10.5281886,0 C4.75769868,0 0.0910815939,4.17869417 0.0910815939,9.34855442 L0.0910815939,57.2598356 L0.0910815939,57.2598356 Z" id="Path" fill="#F0F0F0" sketch:type="MSShapeGroup"></path>
                <path d="M2.02656546,57.2598356 L2.02656546,9.34855442 C2.02656546,5.30429315 5.78049769,1.94285714 10.5281886,1.94285714 L79.4718114,1.94285714 C84.1725858,1.94285714 87.9734345,5.2647875 87.9734345,9.34855442 L87.9734345,57.4068027 C87.9734345,61.451064 84.2195023,64.8125 79.4718114,64.8125 L10.5281886,64.8125 C5.81336689,64.6775594 2.02656546,61.3275447 2.02656546,57.2598356 L2.02656546,57.2598356 Z" id="Shape" fill="#FAFAFA" sketch:type="MSShapeGroup"></path>
                <g id="meter" transform="translate(0.000000, 51.119571)" sketch:type="MSShapeGroup">
                    <rect id="Rectangle-92" fill="#E0123F" x="0" y="0" width="30.7937411" height="15.8370126"></rect>
                    <rect id="Rectangle-92-Copy" fill="#FEC95D" x="29.4576186" y="0" width="30.7937411" height="15.8370126"></rect>
                    <rect id="Rectangle-92-Copy-2" fill="#69B275" x="59.1660112" y="0" width="30.7937411" height="15.8370126"></rect>
                </g>
                <path d="M66.7741935,45.8222839 L82.876161,45.8222839 L74.8251773,57.353141 L66.7741935,45.8222839 Z" id="Triangle-3" fill="#F7F7F7" sketch:type="MSShapeGroup"></path>
                <path d="M17.2124756,39.730923 L20.2592476,39.730923 L31.2691737,16.8152886 L31.2691737,14.7060492 L14.8235294,14.7060492 L14.8235294,17.2800362 L28.1531569,17.2800362 L17.2124756,39.730923 Z M43.6639961,40.0884211 C48.8227351,40.0884211 52.7696897,37.2284356 52.7696897,32.974207 L52.7696897,32.9027074 C52.7696897,29.9354724 50.6577227,27.8977327 47.7840628,26.7894883 C50.0345194,25.7169937 51.9387519,23.9295027 51.9387519,21.0337673 L51.9387519,20.9622677 C51.9387519,17.1012871 48.0956645,14.348551 43.6639961,14.348551 C39.2323278,14.348551 35.3892404,17.1012871 35.3892404,20.9622677 L35.3892404,21.0337673 C35.3892404,23.9295027 37.2934729,25.7169937 39.5439294,26.7894883 C36.6356471,27.8619828 34.5583025,29.9712222 34.5583025,32.9384572 L34.5583025,33.0099569 C34.5583025,37.1926858 38.5052572,40.0884211 43.6639961,40.0884211 L43.6639961,40.0884211 Z M43.6639961,25.7884933 C40.5826017,25.7884933 38.1244107,23.9295027 38.1244107,21.2125164 L38.1244107,21.1410168 C38.1244107,18.6385294 40.5133569,16.8152886 43.6639961,16.8152886 C46.8146353,16.8152886 49.2035816,18.6742792 49.2035816,21.1410168 L49.2035816,21.2125164 C49.2035816,23.9295027 46.7453905,25.7884933 43.6639961,25.7884933 L43.6639961,25.7884933 Z M43.6639961,37.6216836 C39.6824191,37.6216836 37.3280953,35.4766944 37.3280953,32.9384572 L37.3280953,32.8669576 C37.3280953,30.0784717 40.1325104,28.1122316 43.6639961,28.1122316 C47.1954818,28.1122316 49.999897,30.0784717 49.999897,32.8669576 L49.999897,32.9384572 C49.999897,35.4766944 47.6455732,37.6216836 43.6639961,37.6216836 L43.6639961,37.6216836 Z M66.930255,40.1599208 C73.1622886,40.1599208 77.178488,34.2254507 77.178488,27.2184861 L77.178488,27.1469864 C77.178488,20.1400218 73.2315334,14.2770514 66.9994998,14.2770514 C60.7674662,14.2770514 56.7166443,20.2115214 56.7166443,27.2184861 L56.7166443,27.2899857 C56.7166443,34.2969504 60.6635989,40.1599208 66.930255,40.1599208 L66.930255,40.1599208 Z M66.9994998,37.5859338 C62.4639642,37.5859338 59.5556819,32.6882085 59.5556819,27.2184861 L59.5556819,27.1469864 C59.5556819,21.6415142 62.3947194,16.8510384 66.930255,16.8510384 C71.4311681,16.8510384 74.3394505,21.7487637 74.3394505,27.2184861 L74.3394505,27.2899857 C74.3394505,32.7597081 71.5350354,37.5859338 66.9994998,37.5859338 L66.9994998,37.5859338 Z" id="780" stroke="#69B275" stroke-width="0.5" fill="#69B275" sketch:type="MSShapeGroup"></path>
            </g>
        </g>
    </g>
</svg>