<?xml version="1.0" encoding="UTF-8" standalone="no"?>
<svg width="100px" height="93px" viewBox="0 0 100 93" version="1.1" xmlns="http://www.w3.org/2000/svg" xmlns:xlink="http://www.w3.org/1999/xlink" xmlns:sketch="http://www.bohemiancoding.com/sketch/ns">
    <!-- Generator: Sketch 3.3.3 (12081) - http://www.bohemiancoding.com/sketch -->
    <title>declarations-large</title>
    <desc>Created with Sketch.</desc>
    <defs></defs>
    <g id="Page-1" stroke="none" stroke-width="1" fill="none" fill-rule="evenodd" sketch:type="MSPage">
        <g id="declarations-large" sketch:type="MSArtboardGroup">
            <g sketch:type="MSLayerGroup" transform="translate(17.000000, 4.000000)">
                <g id="clipboard/paper" transform="translate(0.000000, 9.957895)" sketch:type="MSShapeGroup">
                    <path d="M65.5056322,70.5733446 C65.5056322,73.5936577 63.0572876,76.0421053 60.0333283,76.0421053 L5.47230391,76.0421053 C2.45003391,76.0421053 1.3500312e-13,73.5981731 1.3500312e-13,70.5733446 L1.3500312e-13,5.46876068 C1.3500312e-13,2.44844756 2.44834458,0 5.47230391,0 L60.0333283,0 C63.0555983,0 65.5056322,2.4439322 65.5056322,5.46876068 L65.5056322,70.5733446 Z" id="Shape" fill="#8E715B"></path>
                    <path d="M56.3025022,71.5157895 L8.7808311,71.5157895 C6.38226095,71.5157895 4.58333333,69.7164854 4.58333333,67.6403654 L4.58333333,8.40173989 C4.58333333,6.18721183 6.53217158,4.52631579 8.7808311,4.52631579 L56.1525916,4.52631579 C58.5511618,4.52631579 60.3500894,6.32561983 60.3500894,8.40173989 L60.3500894,67.6403654 C60.5,69.8548934 58.5511618,71.5157895 56.3025022,71.5157895 L56.3025022,71.5157895 Z" id="Path" fill="#EBEBEB"></path>
                    <path d="M56.3025022,69.7052632 L56.3025022,69.7052632 C57.6176672,69.7052632 58.5915761,68.8060823 58.5208391,67.7611332 L58.516756,67.6403654 L58.516756,8.40173989 C58.516756,7.29477387 57.5045196,6.33684211 56.1525916,6.33684211 L8.7808311,6.33684211 C7.45649964,6.33684211 6.41666667,7.273473 6.41666667,8.40173989 L6.41666667,67.6403654 C6.41666667,68.7473314 7.42890306,69.7052632 8.7808311,69.7052632 L56.3025022,69.7052632 Z" id="Shape" fill="#FAFAFA"></path>
                </g>
                <g id="yes/no" transform="translate(45.833333, 26.252632)" sketch:type="MSShapeGroup">
                    <path d="M5.31272324,34.6004152 L3.08905622,36.8085362 L1.9962331,35.7233547 C1.74653896,35.4752043 1.34138007,35.4752043 1.09177733,35.7233547 C0.841991798,35.9713236 0.841991798,36.3735015 1.09177733,36.6214704 L2.63673694,38.1559366 C2.7616754,38.2800118 2.92536581,38.342004 3.08896482,38.342004 C3.25256383,38.342004 3.41634564,38.2800118 3.5411927,38.1559366 L6.21708761,35.4985308 C6.46687314,35.250562 6.46687314,34.8483841 6.217179,34.6004152 C5.96748487,34.3522648 5.56250877,34.3522648 5.31272324,34.6004152 Z" id="Shape-Copy-12" fill="#69B275"></path>
                    <path d="M5.31272324,17.4004152 L3.08905622,19.6085362 L1.9962331,18.5233547 C1.74653896,18.2752043 1.34138007,18.2752043 1.09177733,18.5233547 C0.841991798,18.7713236 0.841991798,19.1735015 1.09177733,19.4214704 L2.63673694,20.9559366 C2.7616754,21.0800118 2.92536581,21.142004 3.08896482,21.142004 C3.25256383,21.142004 3.41634564,21.0800118 3.5411927,20.9559366 L6.21708761,18.2985308 C6.46687314,18.050562 6.46687314,17.6483841 6.217179,17.4004152 C5.96748487,17.1522648 5.56250877,17.1522648 5.31272324,17.4004152 Z" id="Shape-Copy-12" fill="#69B275"></path>
                    <path d="M5.15333783,0.290947035 L2.92967081,2.49906806 L1.83684769,1.41388658 C1.58715355,1.16573618 1.18199466,1.16573618 0.932391919,1.41388658 C0.682606389,1.66185545 0.682606389,2.06403336 0.932391919,2.31200223 L2.47735153,3.84646844 C2.60228999,3.97054364 2.7659804,4.03253586 2.92957941,4.03253586 C3.09317842,4.03253586 3.25696023,3.97054364 3.3818073,3.84646844 L6.0577022,1.18906268 C6.30748773,0.941093815 6.30748773,0.538915903 6.05779359,0.290947035 C5.80809946,0.0427966371 5.40312336,0.0427966371 5.15333783,0.290947035 Z" id="Shape-Copy-12" fill="#69B275"></path>
                    <path d="M5.37874722,11.7166948 L4.23971991,10.5863234 L4.23972406,10.7778846 L5.37842619,9.64773923 C5.60118915,9.42664286 5.60118915,9.06852312 5.37841228,8.84748372 C5.15525574,8.62613854 4.79320799,8.62613854 4.57027933,8.84752686 L3.43156246,9.97770836 L3.62649904,9.97770561 L2.48768852,8.8474957 C2.26463508,8.62611111 1.90262827,8.62611111 1.67951723,8.84755296 C1.45679907,9.06860482 1.45682109,9.42672457 1.67958696,9.64775304 L2.81838818,10.7778891 L2.81838079,10.5863303 L1.67951607,11.7167017 C1.45680697,11.9376738 1.45680697,12.2958615 1.67953588,12.5168391 C1.78803458,12.6245192 1.93310392,12.6829276 2.0836317,12.6829276 C2.23415948,12.6829276 2.37922883,12.6245192 2.48774307,12.5168237 L3.62660121,11.3864589 L3.43166324,11.3864639 L4.57063636,12.5168245 C4.67912576,12.6245091 4.82420504,12.6829276 4.97469271,12.6829276 C5.12521952,12.6829276 5.27041752,12.6244765 5.37881196,12.516762 C5.60152262,12.2958734 5.60152262,11.9376619 5.37872192,11.7166697 L5.37874722,11.7166948 L5.37874722,11.7166948 Z" id="Shape" fill="#E0123F"></path>
                    <path d="M5.37874722,28.7188953 L4.23971991,27.5885239 L4.23972406,27.780085 L5.37842619,26.6499397 C5.60118915,26.4288433 5.60118915,26.0707236 5.37841228,25.8496842 C5.15525574,25.628339 4.79320799,25.628339 4.57027933,25.8497273 L3.43156246,26.9799088 L3.62649904,26.9799061 L2.48768852,25.8496962 C2.26463508,25.6283116 1.90262827,25.6283116 1.67951723,25.8497534 C1.45679907,26.0708053 1.45682109,26.4289251 1.67958696,26.6499535 L2.81838818,27.7800896 L2.81838079,27.5885308 L1.67951607,28.7189022 C1.45680697,28.9398742 1.45680697,29.298062 1.67953588,29.5190396 C1.78803458,29.6267197 1.93310392,29.6851281 2.0836317,29.6851281 C2.23415948,29.6851281 2.37922883,29.6267197 2.48774307,29.5190242 L3.62660121,28.3886593 L3.43166324,28.3886644 L4.57063636,29.519025 C4.67912576,29.6267096 4.82420504,29.6851281 4.97469271,29.6851281 C5.12521952,29.6851281 5.27041752,29.626677 5.37881196,29.5189625 C5.60152262,29.2980739 5.60152262,28.9398624 5.37872192,28.7188702 L5.37874722,28.7188953 L5.37874722,28.7188953 Z" id="Shape-Copy" fill="#E0123F"></path>
                    <path d="M5.37874722,45.9188953 L4.23971991,44.7885239 L4.23972406,44.980085 L5.37842619,43.8499397 C5.60118915,43.6288433 5.60118915,43.2707236 5.37841228,43.0496842 C5.15525574,42.828339 4.79320799,42.828339 4.57027933,43.0497273 L3.43156246,44.1799088 L3.62649904,44.1799061 L2.48768852,43.0496962 C2.26463508,42.8283116 1.90262827,42.8283116 1.67951723,43.0497534 C1.45679907,43.2708053 1.45682109,43.6289251 1.67958696,43.8499535 L2.81838818,44.9800896 L2.81838079,44.7885308 L1.67951607,45.9189022 C1.45680697,46.1398742 1.45680697,46.498062 1.67953588,46.7190396 C1.78803458,46.8267197 1.93310392,46.8851281 2.0836317,46.8851281 C2.23415948,46.8851281 2.37922883,46.8267197 2.48774307,46.7190242 L3.62660121,45.5886593 L3.43166324,45.5886644 L4.57063636,46.719025 C4.67912576,46.8267096 4.82420504,46.8851281 4.97469271,46.8851281 C5.12521952,46.8851281 5.27041752,46.826677 5.37881196,46.7189625 C5.60152262,46.4980739 5.60152262,46.1398624 5.37872192,45.9188702 L5.37874722,45.9188953 L5.37874722,45.9188953 Z" id="Shape-Copy-9" fill="#E0123F"></path>
                </g>
                <g id="lines" transform="translate(13.750000, 27.157895)" fill="#B1BEC4" sketch:type="MSShapeGroup">
                    <rect id="Rectangle-326-Copy-4" x="0" y="0" width="28.4166667" height="1.62947364"></rect>
                    <rect id="Rectangle-326-Copy-5" x="0" y="8.6" width="28.4166667" height="1.62947364"></rect>
                    <rect id="Rectangle-326-Copy-6" x="0" y="17.2" width="28.4166667" height="1.62947364"></rect>
                    <rect id="Rectangle-326-Copy-7" x="0" y="25.3473684" width="28.4166667" height="1.62947364"></rect>
                    <rect id="Rectangle-326-Copy-8" x="0" y="33.4947368" width="28.4166667" height="1.62947364"></rect>
                    <rect id="Rectangle-326-Copy-9" x="0" y="42.5473684" width="28.4166667" height="1.62947364"></rect>
                </g>
                <g id="clip" transform="translate(11.916667, 0.000000)" sketch:type="MSShapeGroup">
                    <path d="M40.5282576,15.8443488 C40.5282575,13.9432563 38.9921858,12.4021163 37.0826428,12.4021163 L4.16735694,12.4021163 C2.26439654,12.4021163 0.721742329,13.9403485 0.721742329,15.850107 C0.721742329,15.850107 0.721742329,15.6271163 0.721742329,19.2821162 L40.5282577,19.2821162 C40.5282577,15.4121163 40.5282576,15.8443488 40.5282576,15.8443488 Z" id="Shape-Copy-3" fill="#D0D0CD"></path>
                    <path d="M40.5282574,16.7473794 L0.721742329,16.7473794 L0.721742329,20.1873794 L40.5282577,20.1873794 C40.5282577,18.2523794 40.5282574,16.7473794 40.5282574,16.7473794 Z" id="Shape-Copy-17" fill="#BCBCBC"></path>
                    <path d="M27.6874463,6.32070101 C27.6874463,2.85331 24.8700147,0.0424342105 21.4053164,0.0424342105 L20.9396313,0.0424342105 L19.8359652,0.0424342105 C16.3712557,0.0424342105 13.5625537,2.84800657 13.5625537,6.31490941 C13.5625537,6.31490941 13.5625537,5.92449192 13.5625537,12.590824 L27.6874463,12.590824 L27.6874463,6.32070101 Z M20.625,9.73335133 C22.0038902,9.73335133 23.1217015,8.62944579 23.1217015,7.26770929 C23.1217015,5.9059728 22.0038902,4.80206725 20.625,4.80206725 C19.2461098,4.80206725 18.1282985,5.9059728 18.1282985,7.26770929 C18.1282985,8.62944579 19.2461098,9.73335133 20.625,9.73335133 Z" id="Oval-46" fill="#C1C1BC"></path>
                </g>
            </g>
        </g>
    </g>
</svg>