<?xml version="1.0" encoding="UTF-8" standalone="no"?>
<svg width="100px" height="93px" viewBox="0 0 100 93" version="1.1" xmlns="http://www.w3.org/2000/svg" xmlns:xlink="http://www.w3.org/1999/xlink" xmlns:sketch="http://www.bohemiancoding.com/sketch/ns">
    <!-- Generator: Sketch 3.3.3 (12081) - http://www.bohemiancoding.com/sketch -->
    <title>paystubs-large</title>
    <desc>Created with Sketch.</desc>
    <defs></defs>
    <g id="Page-1" stroke="none" stroke-width="1" fill="none" fill-rule="evenodd" sketch:type="MSPage">
        <g id="paystubs-large" sketch:type="MSArtboardGroup">
            <g sketch:type="MSLayerGroup" transform="translate(6.000000, 12.000000)" id="Shape">
                <path d="M2.64,39.6666667 L2.64,67.5208333 C2.64,68.6875 3.52,69.5625 4.69333333,69.5625 L83.4533333,69.5625 C84.6266667,69.5625 85.5066667,68.6875 85.5066667,67.5208333 L85.5066667,39.6666667 L2.64,39.6666667 L2.64,39.6666667 Z" fill="#8E715B" sketch:type="MSShapeGroup"></path>
                <path d="M31.0933333,44.9166667 C38.5733333,45.6458333 44.44,46.0833333 44.44,46.0833333 C44.44,46.0833333 49.8666667,45.6458333 56.76,44.9166667 L63.8,44.1875 C73.48,43.1666667 83.4533333,42 85.36,41.125 C86.68,40.5416667 87.4133333,39.0833333 87.4133333,37.4791667 L87.4133333,14 C87.4133333,11.6666667 85.5066667,9.91666667 83.3066667,9.91666667 L4.84,9.91666667 C2.49333333,9.91666667 0.733333333,11.8125 0.733333333,14 L0.733333333,37.625 C0.733333333,38.9375 1.32,40.5416667 2.49333333,40.9791667 C5.42666667,42.1458333 15.2533333,43.4583333 24.64,44.3333333 L31.0933333,44.9166667" fill="#AC8B72" sketch:type="MSShapeGroup"></path>
                <path d="M62.48,9.77083333 L62.48,9.77083333 C62.48,4.52083333 58.2266667,0.145833333 52.8,0.145833333 L35.3466667,0.145833333 C30.0666667,0.145833333 25.6666667,4.375 25.6666667,9.77083333 L25.6666667,9.77083333 L32.7066667,9.77083333 C33.1466667,7 35.64,4.95833333 38.5733333,4.95833333 L49.4266667,4.95833333 C52.36,4.95833333 54.7066667,7.14583333 55.2933333,9.77083333 L62.48,9.77083333 L62.48,9.77083333 Z" fill="#5C5C5C" sketch:type="MSShapeGroup"></path>
                <path d="M31.0933333,46.6666667 C31.0933333,48.2708333 29.7733333,49.7291667 28.0133333,49.7291667 L28.0133333,49.7291667 C26.4,49.7291667 24.9333333,48.4166667 24.9333333,46.6666667 L24.9333333,43.6041667 C24.9333333,42 26.2533333,40.5416667 28.0133333,40.5416667 L28.0133333,40.5416667 C29.6266667,40.5416667 31.0933333,41.8541667 31.0933333,43.6041667 L31.0933333,46.6666667 L31.0933333,46.6666667 Z" fill="#FBD15A" sketch:type="MSShapeGroup"></path>
                <path d="M63.2133333,46.6666667 C63.2133333,48.2708333 61.8933333,49.7291667 60.1333333,49.7291667 L60.1333333,49.7291667 C58.52,49.7291667 57.0533333,48.4166667 57.0533333,46.6666667 L57.0533333,43.6041667 C57.0533333,42 58.3733333,40.5416667 60.1333333,40.5416667 L60.1333333,40.5416667 C61.7466667,40.5416667 63.2133333,41.8541667 63.2133333,43.6041667 L63.2133333,46.6666667 L63.2133333,46.6666667 Z" fill="#FCD15A" sketch:type="MSShapeGroup"></path>
            </g>
        </g>
    </g>
</svg>