<?xml version="1.0" encoding="UTF-8" standalone="no"?>
<svg width="100px" height="93px" viewBox="0 0 100 93" version="1.1" xmlns="http://www.w3.org/2000/svg" xmlns:xlink="http://www.w3.org/1999/xlink" xmlns:sketch="http://www.bohemiancoding.com/sketch/ns">
    <!-- Generator: Sketch 3.3.3 (12081) - http://www.bohemiancoding.com/sketch -->
    <title>taxReturns-large</title>
    <desc>Created with Sketch.</desc>
    <defs>
        <path d="M30.8351489,65.1428571 L33.6499315,65.1428571 L33.6499315,39.6285714 L31.556888,39.6285714 L25.3860184,41.7638095 L26.0716706,44.08 L30.8351489,42.5961905 L30.8351489,65.1428571 Z M48.2290619,65.5771429 C53.4977575,65.5771429 57.250801,62.2114286 57.250801,57.2533333 L57.250801,57.1809524 C57.250801,52.367619 53.4255836,49.4361905 48.5177575,49.4361905 C46.4247141,49.4361905 45.0173228,49.9066667 43.5377575,50.5580952 L44.0790619,42.4514286 L56.1321054,42.4514286 L56.1321054,39.8095238 L41.5890619,39.8095238 L40.8673228,52.1504762 L42.7799315,53.4171429 C44.2594967,52.6209524 45.9555836,51.9695238 48.0847141,51.9695238 C51.7655836,51.9695238 54.3638445,54.1409524 54.3638445,57.2895238 L54.3638445,57.3619048 C54.3638445,60.5828571 51.8738445,62.9714286 48.2651489,62.9714286 C45.7029749,62.9714286 43.2851489,61.632381 41.0838445,59.4971429 L39.2073228,61.56 C41.480801,63.84 44.6203662,65.5771429 48.2290619,65.5771429 L48.2290619,65.5771429 Z" id="path-1"></path>
    </defs>
    <g id="Page-1" stroke="none" stroke-width="1" fill="none" fill-rule="evenodd" sketch:type="MSPage">
        <g id="taxReturns-large" sketch:type="MSArtboardGroup">
            <g sketch:type="MSLayerGroup" transform="translate(9.000000, 9.000000)">
                <path d="M8.99608344,75.0546943 C4.17650064,75.0546943 0.134269902,71.1283869 0.134269902,66.1027134 L0.134269902,14.9036651 C0.134269902,10.0350439 4.02103023,5.95168423 8.99608344,5.95168423 L73.5163048,5.95168423 C78.3358876,5.95168423 82.3781183,9.87799162 82.3781183,14.9036651 L82.3781183,66.2597657 C82.3781183,71.1283869 78.491358,75.2117466 73.5163048,75.2117466 L8.99608344,75.2117466 L8.99608344,75.0546943 L8.99608344,75.0546943 Z" id="Path" fill="#FAFAFA" sketch:type="MSShapeGroup"></path>
                <path d="M9.89825735,75.2117466 L9.89825735,75.2117466 L73.5163048,75.2117466 C78.491358,75.2117466 82.3781183,71.1283869 82.3781183,66.2597657 L82.3781183,14.9036651 C82.3781183,9.87799162 78.3358876,5.95168423 73.5163048,5.95168423 L8.99608344,5.95168423 C4.02103023,5.95168423 0.134269902,10.0350439 0.134269902,14.9036651 L0.134269902,66.1027134 C0.134269902,71.1283869 4.17650064,75.0546943 8.99608344,75.0546943 L8.99608344,75.2117466 L9.89825735,75.2117466 L10.8004313,75.2117466 L10.8004313,75.0546943 L10.8004313,73.2451705 L8.99608344,73.2451705 C5.11702024,73.2451705 1.93861773,70.073112 1.93861773,66.1027134 L1.93861773,14.9036651 C1.93861773,10.9720658 5.07883927,7.76120804 8.99608344,7.76120804 L73.5163048,7.76120804 C77.395368,7.76120804 80.5737705,10.9332666 80.5737705,14.9036651 L80.5737705,66.2597657 C80.5737705,70.191365 77.433549,73.4022228 73.5163048,73.4022228 L8.99608344,73.4022228 L8.99608344,75.2117466 L9.89825735,75.2117466 Z" id="Shape" fill="#F0F0F0" sketch:type="MSShapeGroup"></path>
                <path d="M73.3608344,5.95168423 L8.99608344,5.95168423 C4.17650064,5.95168423 0.134269902,9.87799162 0.134269902,14.9036651 L0.134269902,30.7902272 L82.2226459,30.7902272 L82.2226479,14.9036651 C82.2226479,10.0350439 78.3358876,5.95168423 73.3608344,5.95168423 Z" id="Shape" fill="#E0123F" sketch:type="MSShapeGroup"></path>
                <ellipse id="Oval" fill="#1A2D37" sketch:type="MSShapeGroup" cx="66.4000055" cy="10.3307588" rx="2.25543478" ry="2.27838341"></ellipse>
                <ellipse id="Oval" fill="#1A2D37" sketch:type="MSShapeGroup" cx="15.6994277" cy="10.3323754" rx="2.25703507" ry="2.27999998"></ellipse>
                <path d="M65.0467446,10.6709082 L65.0467446,1.24070421 C65.0467446,0.769194012 65.588049,0.45485388 66.4000055,0.45485388 C67.211962,0.45485388 67.7532664,0.769194012 67.7532664,1.24070421 L67.7532664,10.6709082 C67.7532664,11.1424184 67.211962,11.4567585 66.4000055,11.4567585 C65.588049,11.4567585 65.0467446,11.1424184 65.0467446,10.6709082 L65.0467446,10.6709082 Z" id="Shape" fill="#AAADAD" sketch:type="MSShapeGroup"></path>
                <path d="M14.3376209,10.6632531 L14.3376209,1.24011536 C14.3376209,0.768958472 14.8789253,0.45485388 15.6908818,0.45485388 C16.5028383,0.45485388 17.0441427,0.768958472 17.0441427,1.24011536 L17.0441427,10.6632531 C17.0441427,11.13441 16.5028383,11.4485146 15.6908818,11.4485146 C14.8789253,11.4485146 14.3376209,11.13441 14.3376209,10.6632531 L14.3376209,10.6632531 Z" id="Shape" fill="#AAADAD" sketch:type="MSShapeGroup"></path>
                <path d="M25.2767798,24.3836924 L27.1657453,24.3836924 L28.2451542,21.8428119 L33.2074366,21.8428119 L34.2718537,24.3836924 L36.2207864,24.3836924 L31.6033151,13.7841615 L29.8942511,13.7841615 L25.2767798,24.3836924 Z M28.9197848,20.2040192 L30.7187995,15.9942765 L32.5328061,20.2040192 L28.9197848,20.2040192 Z M38.0198012,24.3836924 L39.8637913,24.3836924 L39.8637913,21.0008634 L41.9476501,21.0008634 C44.2563857,21.0008634 46.1453513,19.7680101 46.1453513,17.4075472 L46.1453513,17.3774777 C46.1453513,15.2575715 44.6011969,13.8593355 42.1575352,13.8593355 L38.0198012,13.8593355 L38.0198012,24.3836924 Z M39.8637913,19.3320011 L39.8637913,15.5432326 L42.0076173,15.5432326 C43.3868619,15.5432326 44.2713775,16.1897288 44.2713775,17.422582 L44.2713775,17.4526516 C44.2713775,18.5501917 43.4018537,19.3320011 42.0076173,19.3320011 L39.8637913,19.3320011 Z M48.0343168,24.3836924 L49.8783069,24.3836924 L49.8783069,20.7152023 L52.1870426,20.7152023 L54.7656304,24.3836924 L56.9394399,24.3836924 L54.1059916,20.3994716 C55.575187,19.9784973 56.6096205,18.9410964 56.6096205,17.2120949 L56.6096205,17.1820253 C56.6096205,16.2649028 56.294793,15.4830934 55.7400967,14.9117712 C55.0654662,14.2502402 54.0310327,13.8593355 52.7117552,13.8593355 L48.0343168,13.8593355 L48.0343168,24.3836924 Z M49.8783069,19.0764095 L49.8783069,15.5432326 L52.5618373,15.5432326 C53.9260902,15.5432326 54.7356468,16.1596592 54.7356468,17.2872689 L54.7356468,17.3173385 C54.7356468,18.384809 53.8961066,19.0764095 52.5768291,19.0764095 L49.8783069,19.0764095 Z" id="APR" fill="#F7F7F7" sketch:type="MSShapeGroup"></path>
                <g id="15-copy">
                    <use fill="#0B4B66" fill-rule="evenodd" sketch:type="MSShapeGroup" xlink:href="#path-1"></use>
                    <use fill="none" xlink:href="#path-1"></use>
                </g>
            </g>
        </g>
    </g>
</svg>