<?xml version="1.0" encoding="UTF-8" standalone="no"?>
<svg width="100px" height="93px" viewBox="0 0 100 93" version="1.1" xmlns="http://www.w3.org/2000/svg" xmlns:xlink="http://www.w3.org/1999/xlink" xmlns:sketch="http://www.bohemiancoding.com/sketch/ns">
    <!-- Generator: Sketch 3.3.3 (12081) - http://www.bohemiancoding.com/sketch -->
    <title>validateAssets-large</title>
    <desc>Created with Sketch.</desc>
    <defs></defs>
    <g id="Page-1" stroke="none" stroke-width="1" fill="none" fill-rule="evenodd" sketch:type="MSPage">
        <g id="validateAssets-large" sketch:type="MSArtboardGroup">
            <g sketch:type="MSLayerGroup" transform="translate(9.000000, 4.000000)">
                <path d="M8.49072028,62.3790323 C7.73013146,62.3790323 7.11533363,61.7662097 7.11533363,61.0080645 L7.11533363,37.7016129 C7.11533363,36.9434677 7.73013146,36.3306452 8.49072028,36.3306452 L16.7430402,36.3306452 C17.503629,36.3306452 18.1184269,36.9434677 18.1184269,37.7016129 L18.1184269,61.0080645 C18.1184269,61.7662097 17.5022536,62.3790323 16.7430402,62.3790323 L8.49072028,62.3790323 Z" id="Shape" fill="#BEC1C8" sketch:type="MSShapeGroup"></path>
                <path d="M11.9291869,62.3790323 L7.80302696,62.3790323 C7.42273255,62.3790323 7.11533363,61.7662097 7.11533363,61.0080645 L7.11533363,37.7016129 C7.11533363,36.9434677 7.42273255,36.3306452 7.80302696,36.3306452 L11.9291869,36.3306452 C12.3094813,36.3306452 12.6168802,36.9434677 12.6168802,37.7016129 L12.6168802,61.0080645 C12.6168802,61.7662097 12.3087936,62.3790323 11.9291869,62.3790323 L11.9291869,62.3790323 Z" id="Shape-Copy-15" fill="#DCDCDC" sketch:type="MSShapeGroup"></path>
                <path d="M18.1184269,67.8629032 L7.11533363,67.8629032 C6.35474481,67.8629032 5.73994697,67.2500806 5.73994697,66.4919355 L5.73994697,61.0080645 C5.73994697,60.2499194 6.35474481,59.6370968 7.11533363,59.6370968 L18.1184269,59.6370968 C18.8790157,59.6370968 19.4938135,60.2499194 19.4938135,61.0080645 L19.4938135,66.4919355 C19.4938135,67.2500806 18.8776403,67.8629032 18.1184269,67.8629032 L18.1184269,67.8629032 Z" id="Shape" fill="#E6E6E6" sketch:type="MSShapeGroup"></path>
                <path d="M18.1184269,39.0725806 L7.11533363,39.0725806 C6.35474481,39.0725806 5.73994697,38.4597581 5.73994697,37.7016129 L5.73994697,32.2177419 C5.73994697,31.4595968 6.35474481,30.8467742 7.11533363,30.8467742 L18.1184269,30.8467742 C18.8790157,30.8467742 19.4938135,31.4595968 19.4938135,32.2177419 L19.4938135,37.7016129 C19.4938135,38.4597581 18.8776403,39.0725806 18.1184269,39.0725806 L18.1184269,39.0725806 Z" id="Shape" fill="#E6E6E6" sketch:type="MSShapeGroup"></path>
                <path d="M45.62616,62.3790323 L37.37384,62.3790323 C36.6132512,62.3790323 35.9984534,61.7662097 35.9984534,61.0080645 L35.9984534,37.7016129 C35.9984534,36.9434677 36.6132512,36.3306452 37.37384,36.3306452 L45.62616,36.3306452 C46.3867488,36.3306452 47.0015466,36.9434677 47.0015466,37.7016129 L47.0015466,61.0080645 C47.0015466,61.7662097 46.3867488,62.3790323 45.62616,62.3790323 L45.62616,62.3790323 Z" id="Shape" fill="#BEC1C8" sketch:type="MSShapeGroup"></path>
                <path d="M40.8123067,62.3790323 L36.6861467,62.3790323 C36.3058523,62.3790323 35.9984534,61.7662097 35.9984534,61.0080645 L35.9984534,37.7016129 C35.9984534,36.9434677 36.3058523,36.3306452 36.6861467,36.3306452 L40.8123067,36.3306452 C41.1926011,36.3306452 41.5,36.9434677 41.5,37.7016129 L41.5,61.0080645 C41.5,61.7662097 41.1926011,62.3790323 40.8123067,62.3790323 L40.8123067,62.3790323 Z" id="Shape-Copy-7" fill="#DCDCDC" sketch:type="MSShapeGroup"></path>
                <path d="M74.5092797,62.3790323 L66.2569598,62.3790323 C65.496371,62.3790323 64.8815731,61.7662097 64.8815731,61.0080645 L64.8815731,37.7016129 C64.8815731,36.9434677 65.496371,36.3306452 66.2569598,36.3306452 L74.5092797,36.3306452 C75.2698685,36.3306452 75.8846664,36.9434677 75.8846664,37.7016129 L75.8846664,61.0080645 C75.8846664,61.7662097 75.2698685,62.3790323 74.5092797,62.3790323 L74.5092797,62.3790323 Z" id="Shape" fill="#BEC1C8" sketch:type="MSShapeGroup"></path>
                <path d="M69.6954264,62.3790323 L65.5692665,62.3790323 C65.1889721,62.3790323 64.8815731,61.7662097 64.8815731,61.0080645 L64.8815731,37.7016129 C64.8815731,36.9434677 65.1889721,36.3306452 65.5692665,36.3306452 L69.6954264,36.3306452 C70.0757208,36.3306452 70.3831198,36.9434677 70.3831198,37.7016129 L70.3831198,61.0080645 C70.3831198,61.7662097 70.0757208,62.3790323 69.6954264,62.3790323 L69.6954264,62.3790323 Z" id="Shape-Copy-14" fill="#DCDCDC" sketch:type="MSShapeGroup"></path>
                <path d="M47.0015466,67.8629032 L35.9984534,67.8629032 C35.2378646,67.8629032 34.6230667,67.2500806 34.6230667,66.4919355 L34.6230667,61.0080645 C34.6230667,60.2499194 35.2378646,59.6370968 35.9984534,59.6370968 L47.0015466,59.6370968 C47.7621354,59.6370968 48.3769333,60.2499194 48.3769333,61.0080645 L48.3769333,66.4919355 C48.3769333,67.2500806 47.7621354,67.8629032 47.0015466,67.8629032 L47.0015466,67.8629032 Z" id="Shape" fill="#E6E6E6" sketch:type="MSShapeGroup"></path>
                <path d="M75.8846664,67.8629032 L64.8815731,67.8629032 C64.1209843,67.8629032 63.5061865,67.2500806 63.5061865,66.4919355 L63.5061865,61.0080645 C63.5061865,60.2499194 64.1209843,59.6370968 64.8815731,59.6370968 L75.8846664,59.6370968 C76.6452552,59.6370968 77.260053,60.2499194 77.260053,61.0080645 L77.260053,66.4919355 C77.260053,67.2500806 76.6452552,67.8629032 75.8846664,67.8629032 L75.8846664,67.8629032 Z" id="Shape" fill="#E6E6E6" sketch:type="MSShapeGroup"></path>
                <path d="M75.8846664,39.0725806 L64.8815731,39.0725806 C64.1209843,39.0725806 63.5061865,38.4597581 63.5061865,37.7016129 L63.5061865,32.2177419 C63.5061865,31.4595968 64.1209843,30.8467742 64.8815731,30.8467742 L75.8846664,30.8467742 C76.6452552,30.8467742 77.260053,31.4595968 77.260053,32.2177419 L77.260053,37.7016129 C77.260053,38.4597581 76.6452552,39.0725806 75.8846664,39.0725806 L75.8846664,39.0725806 Z" id="Shape" fill="#E6E6E6" sketch:type="MSShapeGroup"></path>
                <path d="M47.0015466,39.0725806 L35.9984534,39.0725806 C35.2378646,39.0725806 34.6230667,38.4597581 34.6230667,37.7016129 L34.6230667,32.2177419 C34.6230667,31.4595968 35.2378646,30.8467742 35.9984534,30.8467742 L47.0015466,30.8467742 C47.7621354,30.8467742 48.3769333,31.4595968 48.3769333,32.2177419 L48.3769333,37.7016129 C48.3769333,38.4597581 47.7621354,39.0725806 47.0015466,39.0725806 L47.0015466,39.0725806 Z" id="Shape" fill="#E6E6E6" sketch:type="MSShapeGroup"></path>
                <path d="M78.6354397,33.5887097 L4.36456032,33.5887097 C3.6039715,33.5887097 2.98917366,32.9758871 2.98917366,32.2177419 L2.98917366,26.733871 C2.98917366,25.9757258 3.6039715,25.3629032 4.36456032,25.3629032 L78.6354397,25.3629032 C79.3960285,25.3629032 80.0108263,25.9757258 80.0108263,26.733871 L80.0108263,32.2177419 C80.0108263,32.9758871 79.3960285,33.5887097 78.6354397,33.5887097 L78.6354397,33.5887097 Z" id="Shape" fill="#BEC1C8" sketch:type="MSShapeGroup"></path>
                <path d="M4.36456032,76.0887097 C3.6039715,76.0887097 2.98917366,75.4758871 2.98917366,74.7177419 L2.98917366,66.4919355 C2.98917366,65.7337903 3.6039715,65.1209677 4.36456032,65.1209677 L78.6354397,65.1209677 C79.3960285,65.1209677 80.0108263,65.7337903 80.0108263,66.4919355 L80.0108263,74.7177419 C80.0108263,75.4758871 79.3960285,76.0887097 78.6354397,76.0887097 L4.36456032,76.0887097 Z" id="Shape" fill="#BEC1C8" sketch:type="MSShapeGroup"></path>
                <path d="M81.386213,84.3145161 L1.61378701,84.3145161 C0.853198188,84.3145161 0.238400354,83.7016935 0.238400354,82.9435484 L0.238400354,74.7177419 C0.238400354,73.9595968 0.853198188,73.3467742 1.61378701,73.3467742 L81.386213,73.3467742 C82.1468018,73.3467742 82.7615996,73.9595968 82.7615996,74.7177419 L82.7615996,82.9435484 C82.7615996,83.7016935 82.1468018,84.3145161 81.386213,84.3145161 L81.386213,84.3145161 Z" id="Shape" fill="#E6E6E6" sketch:type="MSShapeGroup"></path>
                <path d="M81.386213,28.1048387 L1.61378701,28.1048387 C1.00173995,28.1048387 0.459837605,27.6990323 0.290665046,27.1081452 C0.122867875,26.518629 0.366311312,25.8893548 0.888958241,25.5685484 L40.7751712,0.891129032 C41.2180457,0.615564516 41.7819543,0.615564516 42.2262042,0.891129032 L82.1124171,25.5685484 C82.6364395,25.8893548 82.8785075,26.518629 82.7120857,27.1081452 C82.538787,27.6990323 81.9982601,28.1048387 81.386213,28.1048387 L81.386213,28.1048387 Z" id="Shape" fill="#E7E7E7" sketch:type="MSShapeGroup"></path>
                <path d="M38.2830665,11.0491756 C37.6788679,11.6191174 37.3769375,12.3503587 37.3769375,13.2415771 C37.3769375,13.9255919 37.5316191,14.4860674 37.8407571,14.921364 C38.1498951,15.3569251 38.5521123,15.6906825 39.0489291,15.926391 C39.5182106,16.1491956 40.0985341,16.3531731 40.784888,16.5366842 C41.6162382,16.7786331 42.622823,16.965 43.2582732,17.4825857 C43.5535591,17.7288183 43.7005263,18.0773835 43.7005263,18.5282284 C43.7005263,18.9481883 43.5486039,19.3145758 43.2453221,19.6305109 C42.5061501,20.2788813 41.6731106,20.3805263 40.784888,20.1682987 C40.2253426,19.9826194 39.7489098,19.6094626 39.512805,19.1381513 C39.4023261,18.9127025 39.2734905,18.5864548 39.1244961,18.1614178 C38.9463899,17.723001 38.5780709,17.543139 38.1385206,17.5393842 C37.5342094,17.5784133 37.0639142,17.9827193 37.0554679,18.5119927 C37.0554679,18.848976 37.1319359,19.1915652 37.2862796,19.5413467 C37.4406233,19.8913927 37.6798252,20.2286934 38.00259,20.5524555 C38.32558,20.8763762 38.7277972,21.1473062 39.210762,21.3649281 C39.6783542,21.5712854 40.2188107,21.7042384 40.784888,21.7598734 C41.1984233,21.7976333 41.6119024,21.7908641 42.0253815,21.7582869 C42.7221525,21.6891133 43.407155,21.5038042 43.9982335,21.1946383 C44.5720251,20.8681791 45.0083094,20.4459979 45.3035953,19.9302103 C45.5988249,19.4146871 45.7459047,18.8616684 45.7459047,18.2707312 C45.7459047,17.7991025 45.6523187,17.3662386 45.4675679,16.9698125 C45.2825356,16.5733864 45.0199091,16.2316434 44.6778865,15.9465402 C44.3577683,15.6719612 43.9941229,15.4613201 43.5883582,15.3163623 C43.1970087,15.1763227 42.6758663,15.0216869 42.0253815,14.8525077 C41.2695983,14.6353618 40.3711837,14.4628509 39.7954776,13.9749337 C39.5527845,13.7650859 39.4308186,13.4563431 39.4308186,13.0469073 C39.472938,12.2300452 40.0168293,11.7713205 40.784888,11.5878624 C41.1872741,11.4975348 41.6452938,11.5275735 42.0253815,11.6228194 C42.6799206,11.8425038 43.0953141,12.2653195 43.271168,12.8908965 C43.4310864,13.4400545 43.7809923,13.7155855 44.3218992,13.7155855 C44.6089077,13.7155855 44.8517133,13.6211858 45.0532442,13.4318574 C45.2548314,13.243005 45.3574833,13.0181907 45.3574833,12.7591599 C45.3574833,12.5259369 45.2876598,12.269233 45.1525738,11.9892068 C45.0174315,11.7093393 44.8269935,11.4389382 44.5786696,11.1746717 C44.2641822,10.8276402 43.8960885,10.5678161 43.4739941,10.3965744 C43.0517308,10.2296692 42.5519859,10.1194569 42.0253815,10.0721776 C41.5218075,10.0240523 41.2279857,10.0516054 40.784888,10.0775719 C39.8152984,10.1730294 38.8832109,10.4858972 38.2830665,11.0491756 Z" id="Shape" fill="#69B275" sketch:type="MSShapeGroup"></path>
                <path d="M41.4038959,8.45897291 C41.7475515,8.45897291 42.024199,8.71879703 42.024199,9.04155432 L42.024199,22.7899679 C42.024199,23.1127252 41.7475515,23.3725493 41.4038959,23.3725493 C41.0602967,23.3725493 40.7836492,23.1127252 40.7836492,22.7899679 L40.7836492,9.04155432 C40.7836492,8.71879703 41.0602967,8.45897291 41.4038959,8.45897291 L41.4038959,8.45897291 Z" id="Shape" fill="#69B275" sketch:type="MSShapeGroup"></path>
            </g>
        </g>
    </g>
</svg>