<?xml version="1.0" encoding="UTF-8" standalone="no"?>
<svg width="58px" height="103px" viewBox="0 0 58 103" version="1.1" xmlns="http://www.w3.org/2000/svg" xmlns:xlink="http://www.w3.org/1999/xlink" xmlns:sketch="http://www.bohemiancoding.com/sketch/ns">
    <!-- Generator: Sketch 3.3.3 (12072) - http://www.bohemiancoding.com/sketch -->
    <title>Fill 12 Copy 2 + Fill 12 Copy + Mask + Oval 1</title>
    <desc>Created with Sketch.</desc>
    <defs>
        <filter x="-50%" y="-50%" width="200%" height="200%" filterUnits="objectBoundingBox" id="filter-1">
            <feOffset dx="0" dy="-4" in="SourceAlpha" result="shadowOffsetOuter1"></feOffset>
            <feGaussianBlur stdDeviation="0" in="shadowOffsetOuter1" result="shadowBlurOuter1"></feGaussianBlur>
            <feColorMatrix values="0 0 0 0 0   0 0 0 0 0   0 0 0 0 0  0 0 0 0.105 0" in="shadowBlurOuter1" type="matrix" result="shadowMatrixOuter1"></feColorMatrix>
            <feMerge>
                <feMergeNode in="shadowMatrixOuter1"></feMergeNode>
                <feMergeNode in="SourceGraphic"></feMergeNode>
            </feMerge>
        </filter>
        <filter x="-50%" y="-50%" width="200%" height="200%" filterUnits="objectBoundingBox" id="filter-2">
            <feOffset dx="0" dy="-4" in="SourceAlpha" result="shadowOffsetOuter1"></feOffset>
            <feGaussianBlur stdDeviation="0" in="shadowOffsetOuter1" result="shadowBlurOuter1"></feGaussianBlur>
            <feColorMatrix values="0 0 0 0 0   0 0 0 0 0   0 0 0 0 0  0 0 0 0.105 0" in="shadowBlurOuter1" type="matrix" result="shadowMatrixOuter1"></feColorMatrix>
            <feMerge>
                <feMergeNode in="shadowMatrixOuter1"></feMergeNode>
                <feMergeNode in="SourceGraphic"></feMergeNode>
            </feMerge>
        </filter>
        <path id="path-3" d="M26.844696,64.4297791 L29.3601074,64.0869141 L34.0480652,59.8048401 L38.5330811,58.4451294 L40.0177612,62.3597717 C40.0177612,62.3597717 40.3531494,69.3612671 38.931488,70.657959 C37.5098267,71.9546509 46.1466064,73.1279755 46.1466064,73.1279755 C46.1466064,73.1279755 46.2480774,71.5690613 46.4002838,69.3425751 C46.5524902,67.1160889 47.013916,63.9277649 44.8376312,62.2946167 C42.6613464,60.6614685 45.8384552,56.9038391 49.6003571,58.2945251 C53.3622589,59.6852112 56.5772858,65.3029633 56.7727509,67.1353149 C56.9682159,68.9676666 77.1304932,54.9609375 77.1304932,54.9609375 L69.6846619,20.6210327 L26.9536438,0.712432861 L2.09967041,24.0742493 L0.0681152344,60.5076599 L26.844696,64.4297791 Z"></path>
    </defs>
    <g id="Page-1" stroke="none" stroke-width="1" fill="none" fill-rule="evenodd" sketch:type="MSPage">
        <g id="Fill-12-Copy-2-+-Fill-12-Copy-+-Mask-+-Oval-1" sketch:type="MSLayerGroup" transform="translate(-11.000000, -28.000000)">
            <path d="M23.6859083,97.2747352 C21.4355678,97.2747352 19.6103283,95.4873553 19.6103283,93.2812855 C19.6103283,91.0757546 21.4355678,89.2883747 23.6859083,89.2883747 C25.9367988,89.2883747 27.7620383,91.0757546 27.7620383,93.2812855 C27.7620383,95.4873553 25.9367988,97.2747352 23.6859083,97.2747352 L23.6859083,97.2747352 Z M83.8038762,88.5905583 L51.3081233,88.5905583 C44.1952434,88.5905583 43.6381577,87.9067521 42.5047384,87.359815 C42.2264705,87.2256402 41.8118183,86.864069 41.346022,86.3947268 C41.2899284,86.1689468 41.2569322,86.0417772 41.2569322,86.0417772 C41.2569322,86.0417772 37.1632043,78.75 28.233334,78.75 C19.3034637,78.75 15.2102857,87.7424016 15.2102857,87.7424016 C15.2102857,87.7424016 14.21875,91.6318523 14.21875,94.9134754 C14.21875,98.1945596 17.8147853,107.1875 28.857512,107.1875 C34.3546781,107.1875 37.7285391,104.807919 39.7457065,102.02797 L41.7551748,99.4544011 L43.7079996,99.5912701 C43.7079996,99.5912701 45.2274744,101.044021 46.7068038,101.026239 C47.4822144,101.016001 47.8913672,98.0199708 47.8913672,98.0199708 L51.2729273,98.0199708 C51.3295708,97.9951835 51.3878641,97.9714739 51.4467073,97.9483031 L55.4925907,93.7150633 C55.4925907,93.7150633 57.5850995,95.7643264 58.2125771,95.7643264 C58.8395048,95.7643264 60.8269756,93.5097598 60.8269756,93.5097598 C60.8269756,93.5097598 62.9535804,95.7643264 63.5117661,95.7643264 C64.0694018,95.7643264 66.1619105,93.7150633 66.1619105,93.7150633 C66.1619105,93.7150633 68.1845772,95.5595618 68.811505,95.5595618 C69.4389826,95.5595618 71.1833815,93.9198279 71.1833815,93.9198279 C71.1833815,93.9198279 73.2043984,95.5595618 73.8318761,95.4911273 C74.4604536,95.4232316 76.4127285,93.5097598 76.4127285,93.5097598 C76.4127285,93.5097598 78.4342954,95.5595618 79.0628729,95.4911273 C79.6898006,95.4232316 81.5029415,93.5781943 81.5029415,93.5781943 C81.5029415,93.5781943 83.5256083,96.2428291 84.1530859,96.1743946 C84.7800136,96.1064989 87.5,92.0747906 87.5,92.0747906 L83.8038762,88.5905583 L83.8038762,88.5905583 Z" id="Fill-12-Copy-2" stroke="#588DCA" stroke-width="1.09375" fill="#65A2E7" filter="url(#filter-1)" sketch:type="MSShapeGroup" transform="translate(50.859375, 92.968750) rotate(-273.000000) translate(-50.859375, -92.968750) "></path>
            <path d="M-1.47034165,90.7122352 C-3.72068217,90.7122352 -5.5459217,88.9248553 -5.5459217,86.7187855 C-5.5459217,84.5132546 -3.72068217,82.7258747 -1.47034165,82.7258747 C0.780548802,82.7258747 2.60578833,84.5132546 2.60578833,86.7187855 C2.60578833,88.9248553 0.780548802,90.7122352 -1.47034165,90.7122352 L-1.47034165,90.7122352 Z M58.6476262,82.0280583 L26.1518733,82.0280583 C19.0389934,82.0280583 18.4819077,81.3442521 17.3484884,80.797315 C17.0702205,80.6631402 16.6555683,80.301569 16.189772,79.8322268 C16.1336784,79.6064468 16.1006822,79.4792772 16.1006822,79.4792772 C16.1006822,79.4792772 12.0069543,72.1875 3.07708399,72.1875 C-5.85278631,72.1875 -9.94596433,81.1799016 -9.94596433,81.1799016 C-9.94596433,81.1799016 -10.9375,85.0693523 -10.9375,88.3509754 C-10.9375,91.6320596 -7.34146466,100.625 3.70126202,100.625 C9.19842814,100.625 12.5722891,98.2454191 14.5894565,95.4654695 L16.5989248,92.8919011 L18.5517496,93.0287701 C18.5517496,93.0287701 20.0712244,94.4815214 21.5505538,94.4637392 C22.3259644,94.453501 22.7351172,91.4574708 22.7351172,91.4574708 L26.1166773,91.4574708 C26.1733208,91.4326835 26.2316141,91.4089739 26.2904573,91.3858031 L30.3363407,87.1525633 C30.3363407,87.1525633 32.4288495,89.2018264 33.0563271,89.2018264 C33.6832548,89.2018264 35.6707256,86.9472598 35.6707256,86.9472598 C35.6707256,86.9472598 37.7973304,89.2018264 38.3555161,89.2018264 C38.9131518,89.2018264 41.0056605,87.1525633 41.0056605,87.1525633 C41.0056605,87.1525633 43.0283272,88.9970618 43.655255,88.9970618 C44.2827326,88.9970618 46.0271315,87.3573279 46.0271315,87.3573279 C46.0271315,87.3573279 48.0481484,88.9970618 48.6756261,88.9286273 C49.3042036,88.8607316 51.2564785,86.9472598 51.2564785,86.9472598 C51.2564785,86.9472598 53.2780454,88.9970618 53.9066229,88.9286273 C54.5335506,88.8607316 56.3466915,87.0156943 56.3466915,87.0156943 C56.3466915,87.0156943 58.3693583,89.6803291 58.9968359,89.6118946 C59.6237636,89.5439989 62.34375,85.5122906 62.34375,85.5122906 L58.6476262,82.0280583 L58.6476262,82.0280583 Z" id="Fill-12-Copy" stroke="#588DCA" stroke-width="1.09375" fill="#65A2E7" filter="url(#filter-2)" sketch:type="MSShapeGroup" transform="translate(25.703125, 86.406250) rotate(-252.000000) translate(-25.703125, -86.406250) "></path>
            <g id="Mask-+-Oval-1" transform="translate(6.468750, 0.000000)">
                <mask id="mask-4" sketch:name="Mask" fill="white">
                    <use xlink:href="#path-3"></use>
                </mask>
                <use id="Mask" sketch:type="MSShapeGroup" xlink:href="#path-3"></use>
                <path d="M28.9258863,63.4429467 C31.9219824,65.5089963 35.5540896,66.71875 39.46875,66.71875 C49.7377946,66.71875 58.0625,58.3940446 58.0625,48.125 C58.0625,37.8559554 49.7377946,29.53125 39.46875,29.53125 C29.1997054,29.53125 20.875,37.8559554 20.875,48.125 C20.875,54.4793842 24.0625407,60.0892784 28.9258863,63.4429467 Z" id="Oval-1" stroke="#647B77" stroke-width="2.1875" sketch:type="MSShapeGroup" mask="url(#mask-4)"></path>
            </g>
        </g>
    </g>
</svg>