<?xml version="1.0" encoding="UTF-8" standalone="no"?>
<svg width="158px" height="39px" viewBox="0 0 158 39" version="1.1" xmlns="http://www.w3.org/2000/svg" xmlns:xlink="http://www.w3.org/1999/xlink" xmlns:sketch="http://www.bohemiancoding.com/sketch/ns">
    <!-- Generator: Sketch 3.3.3 (12072) - http://www.bohemiancoding.com/sketch -->
    <title>Emblem Logo</title>
    <desc>Created with Sketch.</desc>
    <defs></defs>
    <g id="Page-1" stroke="none" stroke-width="1" fill="none" fill-rule="evenodd" sketch:type="MSPage">
        <g id="Emblem-Logo" sketch:type="MSLayerGroup">
            <g id="noun_25841-+-Emblem">
                <path d="M7.68,27.7872 C7.1664,27.7872 6.6908,27.4548 6.5328,26.938 C6.3392,26.304 6.6956,25.6332 7.3292,25.4392 C12.6916,23.7996 18.1216,23.2976 23.866,23.9164 L19.0184,11.5392 C17.8348,8.518 8.2924,10.1728 5.1564,10.7156 C4.8804,10.7636 4.6276,10.8072 4.4024,10.8452 C3.7516,10.9524 3.1296,10.514 3.02,9.8604 C2.9104,9.2068 3.3512,8.5876 4.0048,8.478 L4.7464,8.3508 C9.488,7.5288 19.3552,5.818 21.2532,10.664 L26.8408,24.9296 C26.9972,25.3288 26.9284,25.7812 26.6608,26.116 C26.3936,26.4508 25.9708,26.6212 25.5436,26.5536 C19.4,25.6232 13.672,26.0092 8.032,27.7344 C7.9144,27.77 7.7964,27.7872 7.68,27.7872 L7.68,27.7872 Z" id="Shape" fill="#137DAB" sketch:type="MSShapeGroup"></path>
                <path d="M19.5584,32.0908 C19.1228,32.0908 18.7116,31.8528 18.4996,31.4548 C18.24,30.9672 18.3464,30.3656 18.758,29.9968 L24.9228,24.4732 C25.4156,24.0312 26.1748,24.0728 26.6172,24.566 C27.0592,25.0596 27.018,25.8184 26.5244,26.2604 L23.6108,28.8708 C25.6464,28.5836 27.6936,28.4544 29.738,28.4784 C31.7312,28.5032 33.7808,28.6796 35.854,29.0032 L31.6064,16.406 C31.2632,15.3892 29.4436,13.7956 21.126,14.5476 C20.47,14.6056 19.8824,14.1208 19.8224,13.4604 C19.7632,12.8004 20.2496,12.2168 20.9096,12.1568 C25.8236,11.7144 32.5148,11.59 33.8808,15.6388 L38.7756,30.1572 C38.9128,30.5632 38.8224,31.0116 38.5392,31.3332 C38.2556,31.6544 37.8228,31.8004 37.402,31.7168 C34.7872,31.192 32.198,30.9096 29.7072,30.8784 C26.3596,30.8328 23.1396,31.22 19.8536,32.0536 C19.7552,32.0784 19.656,32.0908 19.5584,32.0908 L19.5584,32.0908 Z" id="Shape" fill="#137DAB" sketch:type="MSShapeGroup"></path>
                <path d="M19.5584,32.0912 C19.0908,32.0912 18.6468,31.816 18.4528,31.3584 L15.926,25.388 C15.6676,24.778 15.9528,24.0736 16.5636,23.8152 C17.1716,23.558 17.8776,23.8416 18.1364,24.4528 L20.6632,30.4232 C20.9216,31.0332 20.6364,31.7376 20.0256,31.996 C19.8736,32.06 19.7148,32.0912 19.5584,32.0912 L19.5584,32.0912 Z" id="Shape" fill="#137DAB" sketch:type="MSShapeGroup"></path>
                <path d="M9.966,37.2848 C9.4292,37.2848 8.9404,36.922 8.8032,36.3776 L1.198,6.2088 C1.036,5.5664 1.4256,4.914 2.0684,4.752 C2.712,4.5908 3.3636,4.9796 3.5256,5.6224 L11.1308,35.7912 C11.2928,36.4336 10.9032,37.086 10.2604,37.2484 C10.1616,37.2728 10.0628,37.2848 9.966,37.2848 L9.966,37.2848 Z" id="Shape" fill="#137DAB" sketch:type="MSShapeGroup"></path>
                <text id="Emblem" sketch:type="MSTextLayer" font-family="Trajan Pro" font-size="25" font-weight="normal" letter-spacing="1.0869565" fill="#137DAB">
                    <tspan x="49" y="31">Emblem</tspan>
                </text>
                <path d="M9.08040094,36.1924909 C8.06109122,37.3930124 9.83814604,37.0895719 9.83814604,37.0895719 C9.90091396,37.0895719 9.25688867,37.998438 9.4314094,38.0031174 C9.88171436,38.0151914 10.6648125,37.3965474 10.6648125,37.4973004 C10.6648125,37.6604016 10.7114128,37.7536023 10.8279137,37.7536023 C10.9211143,37.7536023 10.9910149,37.6371014 11.014315,37.5439008 C11.0609154,37.3108991 11.135128,36.7691645 11.1584281,36.5827631 C11.3617965,36.1259904 11.2939171,35.4468855 11.2939171,35.3070845 C11.2939171,35.2138838 11.2706169,35.1206831 11.2007164,35.1206831 C11.1075157,35.1206831 11.014315,35.1905836 10.9211143,35.2138838 C10.6516193,35.262481 10.6516193,35.262481 9.99147828,35.5158854 C9.33133723,35.7692898 9.33551128,35.8920273 9.08040094,36.1924909 Z" id="Path-Copy-2" fill="#FFFFFF" sketch:type="MSShapeGroup" transform="translate(10.034871, 36.561988) rotate(-204.000000) translate(-10.034871, -36.561988) "></path>
                <path d="M36.5427939,31.5500015 C37.7427939,31.7000015 37.9677939,31.8500015 38.1177939,32.2000015 C38.2177939,32.4500015 38.2427939,32.8000015 38.2427939,32.9500015 C38.2427939,33.1250015 38.2927939,33.2250015 38.4177939,33.2250015 C38.5177939,33.2250015 38.5927939,33.1000015 38.6177939,33.0000015 C38.6677939,32.7500015 38.7177939,31.8000015 38.7427939,31.6000015 C38.7927939,31.0000015 38.9177939,30.7500015 38.9177939,30.6000015 C38.9177939,30.5000015 38.8927939,30.4000015 38.8177939,30.4000015 C38.7177939,30.4000015 38.6177939,30.4750015 38.5177939,30.5000015 C38.3427939,30.5250015 37.9427939,30.6000015 37.5177939,30.6250015 C37.0177939,30.6500015 36.1677939,31.5000015 36.5427939,31.5500015 Z" id="Path-Copy" fill="#FFFFFF" sketch:type="MSShapeGroup"></path>
                <path d="M3.71913564,1.2008069 C3.40109037,0.753543288 3.27609037,0.578543288 3.36450412,0.620582064 C2.97609037,0.578543288 2.99865335,0.967787145 2.99865335,0.967787145 L1.7702392,4.19127138 L1.58493396,4.66631037 L2.43226684,15.9854107 C2.28530454,16.350681 2.95109037,16.8285433 3.47609037,16.8785433 C4.27609037,16.9535433 5.02609037,14.9785433 4.58131389,14.1633417 L3.71913564,1.2008069 Z" id="Emblem-Copy" fill="#137DAB" sketch:type="MSShapeGroup" transform="translate(3.149512, 8.747573) rotate(-10.000000) translate(-3.149512, -8.747573) "></path>
            </g>
            <path d="M16.89911,21.5 L13.5,19.1392657 L10.10089,21.5 L11.39922,17.6803672 L8,15.3196328 L12.20156,15.3196328 L13.5,11.5 L14.79844,15.3196328 L19,15.3196328 L15.60089,17.6803672 L16.89911,21.5 L16.89911,21.5 Z" id="Shape-Copy" fill="#F2E325" sketch:type="MSShapeGroup" transform="translate(13.500000, 16.500000) rotate(-7.000000) translate(-13.500000, -16.500000) "></path>
        </g>
    </g>
</svg>